# xmcd
#
# Track frame offsets: 
#        150
#        21080
#        42490
#        59002
#        79107
#        107887
#        125122
#        146495
#        163940
#        180745
#        196777
#        213327
#        235075
#        254252
#        271032
#        290217
#        302352
#        326137
#
# Disc length: 4623 seconds
#
# Revision: 0
# Processed by: cddbd v1.5PL3 Copyright (c) Steve Scherf et al.
# Submitted via: ExactAudioCopy v0.95a5
#
DISCID=0f120d12
DTITLE=Linda Clifford and Curtis Mayfield - The Right Combination
DYEAR=1900
DGENRE=
TTITLE0=Rock you to your socks
TTITLE1=Right Combination
TTITLE2=I'm So Proud
TTITLE3=Ain't no love lost
TTITLE4=It's Lovin' Time (Your Baby's Home)
TTITLE5=Love's Sweet Sensation
TTITLE6=Between You Baby And Me
TTITLE7=This Year
TTITLE8=Broadway Gypsy Lady
TTITLE9=Gypsy Lady
TTITLE10=You Are, You Are
TTITLE11=Hold Me Close
TTITLE12=I Can't Let This Good Thing Get Away
TTITLE13=(It's Gonna Be) A Long, Long Winter
TTITLE14=Turn The Key Softly
TTITLE15=Can't Get Enough
TTITLE16=You Are, You Are
TTITLE17=Tomorrow Night For Sure
EXTD=
EXTT0=
EXTT1=
EXTT2=
EXTT3=
EXTT4=
EXTT5=
EXTT6=
EXTT7=
EXTT8=
EXTT9=
EXTT10=
EXTT11=
EXTT12=
EXTT13=
EXTT14=
EXTT15=
EXTT16=
EXTT17=
PLAYORDER=
